<?xml version="1.0" encoding="iso-8859-1"?>
<!-- Generator: Adobe Illustrator 19.0.0, SVG Export Plug-In . SVG Version: 6.00 Build 0)  -->
<svg version="1.1" id="Layer_1" xmlns="http://www.w3.org/2000/svg" xmlns:xlink="http://www.w3.org/1999/xlink" x="0px" y="0px"
	 viewBox="0 0 460 460" style="enable-background:new 0 0 460 460;" xml:space="preserve">
<g id="XMLID_1869_">
	<path id="XMLID_1605_" style="fill:#535251;" d="M155,130V40c0-19.299,15.701-35,35-35h80c19.299,0,35,15.701,35,35v90h-30V40
		c0-2.757-2.243-5-5-5h-80c-2.757,0-5,2.243-5,5v90H155z M180,430c0-16.569-13.431-30-30-30s-30,13.431-30,30s13.431,30,30,30
		S180,446.569,180,430z M340,430c0-16.569-13.431-30-30-30s-30,13.431-30,30s13.431,30,30,30S340,446.569,340,430z"/>
	<path id="XMLID_1604_" style="fill:#BC3C28;" d="M265,40h-70c-2.761,0-5-2.239-5-5V5c0-2.761,2.239-5,5-5h70c2.761,0,5,2.239,5,5
		v30C270,37.761,267.761,40,265,40z"/>
	<path id="XMLID_1601_" style="fill:#BC3C28;" d="M390,130v260c0,22.091-17.909,40-40,40H110c-22.091,0-40-17.909-40-40V130
		c0-22.091,17.909-40,40-40h240C372.091,90,390,107.909,390,130z"/>
	<path id="XMLID_866_" style="fill:#D4632E;" d="M270,370h-80c-33.137,0-60-26.863-60-60V110c0-11.046,8.954-20,20-20h160
		c11.046,0,20,8.954,20,20v200C330,343.137,303.137,370,270,370z"/>
</g>
<g>
</g>
<g>
</g>
<g>
</g>
<g>
</g>
<g>
</g>
<g>
</g>
<g>
</g>
<g>
</g>
<g>
</g>
<g>
</g>
<g>
</g>
<g>
</g>
<g>
</g>
<g>
</g>
<g>
</g>
</svg>
